<svg xmlns="http://www.w3.org/2000/svg" xmlns:xlink="http://www.w3.org/1999/xlink" width="500" zoomAndPan="magnify" viewBox="0 0 375 374.999991" height="500" preserveAspectRatio="xMidYMid meet" version="1.0"><defs><clipPath id="fd10aca48b"><path d="M 37.5 37.5 L 341 37.5 L 341 341 L 37.5 341 Z M 37.5 37.5 " clip-rule="nonzero"/></clipPath></defs><g clip-path="url(#fd10aca48b)"><path fill="#388eff" d="M 36.722656 49.96875 C 36.722656 42.652344 42.652344 36.722656 49.96875 36.722656 L 327.375 36.722656 C 334.691406 36.722656 340.625 42.652344 340.625 49.96875 L 340.625 327.375 C 340.625 334.691406 334.691406 340.625 327.375 340.625 L 49.96875 340.625 C 42.652344 340.625 36.722656 334.691406 36.722656 327.375 Z M 60.097656 60.097656 L 60.097656 317.246094 L 317.246094 317.246094 L 317.246094 60.097656 Z M 161.519531 142.152344 C 166.082031 146.71875 166.082031 154.117188 161.519531 158.683594 L 131.53125 188.671875 L 161.519531 218.660156 C 166.082031 223.226562 166.082031 230.625 161.519531 235.1875 C 156.953125 239.753906 149.550781 239.753906 144.988281 235.1875 L 107.835938 198.039062 C 102.664062 192.867188 102.664062 184.476562 107.835938 179.304688 L 144.988281 142.152344 C 149.550781 137.589844 156.953125 137.589844 161.519531 142.152344 Z M 238.027344 142.152344 C 233.460938 137.589844 226.058594 137.589844 221.496094 142.152344 C 216.933594 146.71875 216.933594 154.117188 221.496094 158.683594 L 251.484375 188.671875 L 221.496094 218.660156 C 216.933594 223.226562 216.933594 230.625 221.496094 235.1875 C 226.058594 239.753906 233.460938 239.753906 238.027344 235.1875 L 275.175781 198.039062 C 280.351562 192.863281 280.351562 184.476562 275.175781 179.304688 Z M 238.027344 142.152344 " fill-opacity="1" fill-rule="evenodd"/></g></svg>